<mxfile host="Electron" modified="2024-07-24T02:13:52.686Z" agent="Mozilla/5.0 (Macintosh; Intel Mac OS X 10_15_7) AppleWebKit/537.36 (KHTML, like Gecko) draw.io/24.6.4 Chrome/124.0.6367.207 Electron/30.0.6 Safari/537.36" etag="E3JUqufaBa-LiOniNi3B" version="24.6.4" type="device">
  <diagram name="Page-1" id="6fdVEC0TdpTGa_3mcCVm">
    <mxGraphModel dx="1026" dy="676" grid="1" gridSize="10" guides="1" tooltips="1" connect="1" arrows="1" fold="1" page="1" pageScale="1" pageWidth="850" pageHeight="1100" math="0" shadow="0">
      <root>
        <mxCell id="0" />
        <mxCell id="1" parent="0" />
        <UserObject label="&lt;b style=&quot;font-weight:normal;&quot; id=&quot;docs-internal-guid-0da3c4f2-7fff-ff55-7ac1-2294cfdc81cd&quot;&gt;&lt;img width=&quot;315px;&quot; height=&quot;383px;&quot; src=&quot;https://lh7-us.googleusercontent.com/slidesz/AGV_vUdDL3bVt9m2I_bLh4Ht7Ta_K9_3ZW8rYxDkpiOPSncTkhd8MQGf1jnV8U-WjonOjPWk5oW7Gs55uTf6q-kHcxxjmTMMI61Vctejk8e-Ms72lhTj1Lbn-N3LIlGXSge-0op07-5P57q7UQFRm--69Twv8CKFOAmW=s2048?key=jqiBTK563jFBes6FTmxipQ&quot;&gt;&lt;/b&gt;" link="&lt;b style=&quot;font-weight:normal;&quot; id=&quot;docs-internal-guid-0da3c4f2-7fff-ff55-7ac1-2294cfdc81cd&quot;&gt;&lt;img width=&quot;315px;&quot; height=&quot;383px;&quot; src=&quot;https://lh7-us.googleusercontent.com/slidesz/AGV_vUdDL3bVt9m2I_bLh4Ht7Ta_K9_3ZW8rYxDkpiOPSncTkhd8MQGf1jnV8U-WjonOjPWk5oW7Gs55uTf6q-kHcxxjmTMMI61Vctejk8e-Ms72lhTj1Lbn-N3LIlGXSge-0op07-5P57q7UQFRm--69Twv8CKFOAmW=s2048?key=jqiBTK563jFBes6FTmxipQ&quot;&gt;&lt;/b&gt;" id="ilEgGFTXMu2kU0ipeKZ7-1">
          <mxCell style="text;whiteSpace=wrap;html=1;" vertex="1" parent="1">
            <mxGeometry x="250" y="50" width="320" height="390" as="geometry" />
          </mxCell>
        </UserObject>
        <UserObject label="&lt;b style=&quot;font-weight:normal;&quot; id=&quot;docs-internal-guid-09a85920-7fff-a10e-9925-0bb5fdaeebb4&quot;&gt;&lt;span style=&quot;font-size:11pt;font-family:Arial,sans-serif;color:#000000;background-color:transparent;font-weight:400;font-style:normal;font-variant:normal;text-decoration:none;vertical-align:baseline;white-space:pre;white-space:pre-wrap;&quot;&gt;&lt;span style=&quot;border:none;display:inline-block;overflow:hidden;width:144px;height:49px;&quot;&gt;&lt;img src=&quot;https://lh7-us.googleusercontent.com/docsz/AD_4nXeTiW_EY0sC2EhxEgd6GaAzMF3HzwUesSHIzTft4vQKDRkOWzXGpe6Avk8xzZWzNy79TN7TB4jHwf8Ob-pTy4-1sbtcn0P87dFa2OPR0k4tUtizuTzW2Q9amwih3U9U-Goqf0JPTCIM45gcC--x0DWJKXMF?key=Zy6ORf3OZC-G96DkV0N5SQ&quot; width=&quot;144&quot; height=&quot;49&quot; style=&quot;margin-left:0px;margin-top:0px;&quot;&gt;&lt;/span&gt;&lt;/span&gt;&lt;/b&gt;" link="&lt;b style=&quot;font-weight:normal;&quot; id=&quot;docs-internal-guid-09a85920-7fff-a10e-9925-0bb5fdaeebb4&quot;&gt;&lt;span style=&quot;font-size:11pt;font-family:Arial,sans-serif;color:#000000;background-color:transparent;font-weight:400;font-style:normal;font-variant:normal;text-decoration:none;vertical-align:baseline;white-space:pre;white-space:pre-wrap;&quot;&gt;&lt;span style=&quot;border:none;display:inline-block;overflow:hidden;width:144px;height:49px;&quot;&gt;&lt;img src=&quot;https://lh7-us.googleusercontent.com/docsz/AD_4nXeTiW_EY0sC2EhxEgd6GaAzMF3HzwUesSHIzTft4vQKDRkOWzXGpe6Avk8xzZWzNy79TN7TB4jHwf8Ob-pTy4-1sbtcn0P87dFa2OPR0k4tUtizuTzW2Q9amwih3U9U-Goqf0JPTCIM45gcC--x0DWJKXMF?key=Zy6ORf3OZC-G96DkV0N5SQ&quot; width=&quot;144&quot; height=&quot;49&quot; style=&quot;margin-left:0px;margin-top:0px;&quot;&gt;&lt;/span&gt;&lt;/span&gt;&lt;/b&gt;" id="ilEgGFTXMu2kU0ipeKZ7-2">
          <mxCell style="text;whiteSpace=wrap;html=1;" vertex="1" parent="1">
            <mxGeometry x="420" y="440" width="150" height="60" as="geometry" />
          </mxCell>
        </UserObject>
        <UserObject label="&lt;b style=&quot;font-weight:normal;&quot; id=&quot;docs-internal-guid-646a75f8-7fff-e12e-e770-0a3cc1728b6d&quot;&gt;&lt;span style=&quot;font-size:11pt;font-family:Arial,sans-serif;color:#000000;background-color:transparent;font-weight:400;font-style:normal;font-variant:normal;text-decoration:none;vertical-align:baseline;white-space:pre;white-space:pre-wrap;&quot;&gt;&lt;span style=&quot;border:none;display:inline-block;overflow:hidden;width:172px;height:50px;&quot;&gt;&lt;img src=&quot;https://lh7-us.googleusercontent.com/docsz/AD_4nXeW8GGjC70L31_jwL0evt0hTezUgxk5x_xGL7ML_Mz7k8G9tYmi4mBhVctCfFLm13IFNzQ5e3-s1qz5IYqLWEQWQb9nQMoCwbjv0PFlANXJ_O8Gpiic2wcP_cxCeCmv47OLkWjIzQ2N_v8oFXM_CGD2j7M?key=Zy6ORf3OZC-G96DkV0N5SQ&quot; width=&quot;172&quot; height=&quot;50&quot; style=&quot;margin-left:0px;margin-top:0px;&quot;&gt;&lt;/span&gt;&lt;/span&gt;&lt;/b&gt;" link="&lt;b style=&quot;font-weight:normal;&quot; id=&quot;docs-internal-guid-646a75f8-7fff-e12e-e770-0a3cc1728b6d&quot;&gt;&lt;span style=&quot;font-size:11pt;font-family:Arial,sans-serif;color:#000000;background-color:transparent;font-weight:400;font-style:normal;font-variant:normal;text-decoration:none;vertical-align:baseline;white-space:pre;white-space:pre-wrap;&quot;&gt;&lt;span style=&quot;border:none;display:inline-block;overflow:hidden;width:172px;height:50px;&quot;&gt;&lt;img src=&quot;https://lh7-us.googleusercontent.com/docsz/AD_4nXeW8GGjC70L31_jwL0evt0hTezUgxk5x_xGL7ML_Mz7k8G9tYmi4mBhVctCfFLm13IFNzQ5e3-s1qz5IYqLWEQWQb9nQMoCwbjv0PFlANXJ_O8Gpiic2wcP_cxCeCmv47OLkWjIzQ2N_v8oFXM_CGD2j7M?key=Zy6ORf3OZC-G96DkV0N5SQ&quot; width=&quot;172&quot; height=&quot;50&quot; style=&quot;margin-left:0px;margin-top:0px;&quot;&gt;&lt;/span&gt;&lt;/span&gt;&lt;/b&gt;" id="ilEgGFTXMu2kU0ipeKZ7-3">
          <mxCell style="text;whiteSpace=wrap;html=1;" vertex="1" parent="1">
            <mxGeometry x="250" y="440" width="170" height="60" as="geometry" />
          </mxCell>
        </UserObject>
      </root>
    </mxGraphModel>
  </diagram>
</mxfile>
